<?xml version="1.0" encoding="utf-8"?>
<!-- Generator: Adobe Illustrator 15.1.0, SVG Export Plug-In . SVG Version: 6.00 Build 0)  -->
<!DOCTYPE svg PUBLIC "-//W3C//DTD SVG 1.1//EN" "http://www.w3.org/Graphics/SVG/1.1/DTD/svg11.dtd">
<svg version="1.1" id="Слой_1" xmlns="http://www.w3.org/2000/svg" xmlns:xlink="http://www.w3.org/1999/xlink" x="0px" y="0px"
	 width="150px" height="150px" viewBox="0 0 150 150" enable-background="new 0 0 150 150" xml:space="preserve">
<path fill="#444444" stroke="#444444" stroke-width="0.6" d="M28.222,128.166c-4.846,0-8.789-3.943-8.789-8.79V40.79
	c0-4.848,3.943-8.79,8.789-8.79h9.922v-8.05c0-3.815,3.104-6.919,6.918-6.919s6.918,3.104,6.918,6.919V32h46.038v-8.05
	c0-3.815,3.104-6.919,6.919-6.919c3.814,0,6.918,3.104,6.918,6.919V32h9.922c4.846,0,8.789,3.942,8.789,8.79v78.586
	c0,4.847-3.943,8.79-8.789,8.79H28.222z M22.042,119.376c0,3.407,2.772,6.179,6.179,6.179h93.556c3.406,0,6.18-2.771,6.18-6.179
	V57.064H22.042V119.376z M28.222,34.61c-3.407,0-6.179,2.772-6.179,6.18v13.663h105.915V40.79c0-3.407-2.773-6.18-6.18-6.18h-9.922
	v4.309c0,3.814-3.104,6.919-6.918,6.919c-3.815,0-6.919-3.104-6.919-6.919V34.61H51.98v4.309c0,3.814-3.104,6.919-6.918,6.919
	s-6.918-3.104-6.918-6.919V34.61H28.222z M104.938,19.643c-2.376,0-4.309,1.932-4.309,4.308v14.969c0,2.376,1.933,4.308,4.309,4.308
	c2.375,0,4.309-1.932,4.309-4.308V23.95C109.246,21.574,107.313,19.643,104.938,19.643z M45.062,19.643
	c-2.375,0-4.309,1.932-4.309,4.308v14.969c0,2.376,1.933,4.308,4.309,4.308s4.308-1.932,4.308-4.308V23.95
	C49.37,21.574,47.438,19.643,45.062,19.643z"/>
<polyline fill="none" stroke="#358FBD" stroke-width="3" stroke-linecap="round" stroke-linejoin="round" points="69.989,69.117 
	75.359,63.745 80.732,69.117 "/>
<polyline fill="none" stroke="#358FBD" stroke-width="3" stroke-linecap="round" stroke-linejoin="round" points="80.732,112.745 
	75.363,118.117 69.99,112.745 "/>
<polyline fill="none" stroke="#358FBD" stroke-width="3" stroke-linecap="round" stroke-linejoin="round" points="53.047,96.803 
	47.675,91.434 53.047,86.061 "/>
<polyline fill="none" stroke="#358FBD" stroke-width="3" stroke-linecap="round" stroke-linejoin="round" points="97.676,86.06 
	103.047,91.429 97.676,96.802 "/>
<circle fill="#358FBD" cx="75.332" cy="91.502" r="3"/>
<circle fill="#358FBD" cx="60.332" cy="44.877" r="3"/>
<circle fill="#358FBD" cx="75.332" cy="44.877" r="3"/>
<circle fill="#358FBD" cx="89.86" cy="44.877" r="3"/>
<line fill="#358FBD" stroke="#358FBD" stroke-width="3" stroke-linecap="round" stroke-linejoin="round" x1="75.332" y1="66.218" x2="75.332" y2="84.489"/>
<line fill="#358FBD" stroke="#358FBD" stroke-width="3" stroke-linecap="round" stroke-linejoin="round" x1="75.333" y1="115.817" x2="75.333" y2="97.546"/>
<line fill="#358FBD" stroke="#358FBD" stroke-width="3" stroke-linecap="round" stroke-linejoin="round" x1="50.532" y1="91.018" x2="68.804" y2="91.018"/>
<line fill="#358FBD" stroke="#358FBD" stroke-width="3" stroke-linecap="round" stroke-linejoin="round" x1="100.133" y1="91.018" x2="81.86" y2="91.018"/>
</svg>
