<?xml version="1.0" encoding="utf-8"?>
<!-- Generator: Adobe Illustrator 15.1.0, SVG Export Plug-In . SVG Version: 6.00 Build 0)  -->
<!DOCTYPE svg PUBLIC "-//W3C//DTD SVG 1.1//EN" "http://www.w3.org/Graphics/SVG/1.1/DTD/svg11.dtd">
<svg version="1.1" id="Слой_1" xmlns="http://www.w3.org/2000/svg" xmlns:xlink="http://www.w3.org/1999/xlink" x="0px" y="0px"
	 width="150px" height="150px" viewBox="0 0 150 150" enable-background="new 0 0 150 150" xml:space="preserve">
<polyline fill="none" stroke="#358FBD" stroke-width="3" stroke-linecap="round" stroke-linejoin="round" points="100.261,99.549 
	100.261,113.629 107.301,120.67 "/>
<path fill-rule="evenodd" clip-rule="evenodd" fill="none" stroke="#444444" stroke-width="3" stroke-linecap="round" stroke-linejoin="round" stroke-miterlimit="10" d="
	M76.549,112.506c0.006-13.094,10.629-23.709,23.725-23.701c3.32,0.002,6.604,0.705,9.637,2.053l0.361,0.166
	c1.176-3.086,1.77-6.236,1.77-9.963c0-5.127-0.111-10.375-0.229-15.931c-0.214-10.144-0.435-20.579-0.046-32.048
	c-18.371-1.87-33.597-10.637-41.889-19.314c-8.515,8.567-23.77,17.229-41.599,19.043c0.34,11.312,0.138,22.154-0.043,31.905
	c-0.104,5.56-0.202,10.813-0.202,15.835c0,19.34,16.011,28.9,30.137,37.332c4.535,2.705,8.577,5.119,11.741,7.699
	c2.225-1.852,4.915-3.617,7.907-5.453C77.007,117.732,76.547,115.176,76.549,112.506z"/>
<path fill-rule="evenodd" clip-rule="evenodd" fill="none" stroke="#444444" stroke-width="3" stroke-linecap="round" stroke-linejoin="round" stroke-miterlimit="10" d="
	M67.113,112.25c-1.338-0.82-2.711-1.639-4.107-2.471c-15.425-9.207-25.535-16.215-25.535-29.229c0-4.956,0.097-10.155,0.199-15.66
	c0.138-7.397,0.289-15.537,0.203-24.064c12.905-2.79,23.93-8.524,31.912-14.539c7.956,6.139,19.098,11.988,32.361,14.819
	c-0.102,8.51,0.066,16.467,0.23,24.223c0.104,4.908,0.204,9.573,0.224,14.12c-0.77-0.055-1.544-0.082-2.322-0.082
	C82.074,79.367,67.257,94.096,67.113,112.25z"/>
<path fill="none" stroke="#358FBD" stroke-width="3" stroke-linecap="round" stroke-linejoin="round" d="M116.79,129.656
	c-0.565,0.453-1.14,0.912-1.72,1.377c-10.232,8.182-25.15,6.52-33.327-3.709c-8.18-10.229-6.518-25.148,3.705-33.326
	c10.228-8.18,25.15-6.52,33.329,3.707c2.076,2.594,3.579,5.596,4.422,8.805"/>
<path fill="none" stroke="#358FBD" stroke-width="3" stroke-linecap="round" stroke-linejoin="round" d="M110.314,133.988
	C109.66,134.293,110.986,133.676,110.314,133.988c-11.865,5.555-25.979,0.441-31.528-11.42
	c-5.552-11.861-0.438-25.977,11.417-31.527c11.861-5.553,25.98-0.441,31.533,11.42c1.408,3.008,2.165,6.279,2.23,9.596"/>
<line fill="none" stroke="#358FBD" stroke-width="3" stroke-linecap="round" stroke-linejoin="round" x1="100.244" y1="89.168" x2="100.244" y2="92.418"/>
<line fill="none" stroke="#358FBD" stroke-width="3" stroke-linecap="round" stroke-linejoin="round" x1="100.244" y1="132.043" x2="100.244" y2="135.293"/>
<line fill="none" stroke="#358FBD" stroke-width="3" stroke-linecap="round" stroke-linejoin="round" x1="116.552" y1="95.924" x2="114.254" y2="98.221"/>
<line fill="none" stroke="#358FBD" stroke-width="3" stroke-linecap="round" stroke-linejoin="round" x1="86.234" y1="126.24" x2="83.937" y2="128.539"/>
<line fill="none" stroke="#358FBD" stroke-width="3" stroke-linecap="round" stroke-linejoin="round" x1="83.938" y1="95.924" x2="86.234" y2="98.221"/>
<line fill="none" stroke="#358FBD" stroke-width="3" stroke-linecap="round" stroke-linejoin="round" x1="114.254" y1="126.24" x2="117.166" y2="129.127"/>
<line fill="none" stroke="#358FBD" stroke-width="3" stroke-linecap="round" stroke-linejoin="round" x1="77.182" y1="112.23" x2="80.432" y2="112.23"/>
<line fill="none" stroke="#358FBD" stroke-width="3" stroke-linecap="round" stroke-linejoin="round" x1="120.057" y1="112.23" x2="123.967" y2="112.23"/>
</svg>
