<?xml version="1.0" encoding="utf-8"?>
<!-- Generator: Adobe Illustrator 15.1.0, SVG Export Plug-In . SVG Version: 6.00 Build 0)  -->
<!DOCTYPE svg PUBLIC "-//W3C//DTD SVG 1.1//EN" "http://www.w3.org/Graphics/SVG/1.1/DTD/svg11.dtd">
<svg version="1.1" id="Слой_1" xmlns="http://www.w3.org/2000/svg" xmlns:xlink="http://www.w3.org/1999/xlink" x="0px" y="0px"
	 width="150px" height="150px" viewBox="0 0 150 150" enable-background="new 0 0 150 150" xml:space="preserve">
<circle fill="none" stroke="#444444" stroke-width="3" stroke-linecap="round" stroke-linejoin="round" stroke-miterlimit="10" cx="70.423" cy="43.437" r="27.622"/>
<path fill="none" stroke="#444444" stroke-width="3" stroke-linecap="round" stroke-linejoin="round" stroke-miterlimit="10" d="
	M97.939,41.081c-23.063,3.812-37.862-8.052-37.862-8.052s-10.576,8.807-17.276,8.551"/>
<path fill="none" stroke="#444444" stroke-width="3" stroke-linecap="round" stroke-linejoin="round" stroke-miterlimit="10" d="
	M112.324,114.382c-13.461,1.014-25.193-9.074-26.209-22.529c-0.455-6.035,1.327-11.722,4.641-16.254
	c-3.875-0.519-7.241-0.83-7.241-0.83c-3.891,2.124-8.351,3.337-13.091,3.358c-4.741-0.021-9.199-1.233-13.091-3.358
	c0,0-43.896-4.053-40.887,51.438l0.183,0.072c4.716,1.641,8.98,3.063,14.662,4.235l4.592-13.118l4.967,14.488
	c9.406,1.478,18.73,2.301,29.573,2.301c10.001,0,18.562-0.7,27.368-1.968l5.059-12.821l4.702,11.522
	c6.297-1.213,11.106-2.73,16.276-4.505l0.574-0.226c0.226-4.206,0.18-10.701-0.095-16.022
	C120.869,112.528,116.784,114.046,112.324,114.382z"/>
<polyline fill="none" stroke="#358FBD" stroke-width="3" stroke-linecap="round" stroke-linejoin="round" points="127.982,75.118 
	105.93,97.171 97.231,88.473 "/>
<path fill="none" stroke="#358FBD" stroke-width="3" stroke-linecap="round" stroke-linejoin="round" d="M134.125,83.404
	c0.134,0.734,0.27,1.48,0.408,2.234c2.416,13.283-6.393,26.005-19.674,28.418c-13.281,2.414-26.004-6.394-28.418-19.67
	c-2.417-13.277,6.393-26.007,19.671-28.422c3.368-0.611,6.828-0.505,10.151,0.299"/>
<path fill="none" stroke="#358FBD" stroke-width="3" stroke-linecap="round" stroke-linejoin="round" d="M134.969,88.275
	c-0.016,0.747-0.031,1.505-0.047,2.271c-0.297,13.498-11.477,24.196-24.971,23.897c-13.496-0.296-24.194-11.475-23.898-24.966
	c0.293-13.492,11.475-24.198,24.968-23.902c3.423,0.076,6.791,0.873,9.886,2.327"/>
</svg>
