<?xml version="1.0" encoding="utf-8"?>
<!-- Generator: Adobe Illustrator 15.1.0, SVG Export Plug-In . SVG Version: 6.00 Build 0)  -->
<!DOCTYPE svg PUBLIC "-//W3C//DTD SVG 1.1//EN" "http://www.w3.org/Graphics/SVG/1.1/DTD/svg11.dtd">
<svg version="1.1" id="Слой_1" xmlns="http://www.w3.org/2000/svg" xmlns:xlink="http://www.w3.org/1999/xlink" x="0px" y="0px"
	 width="194px" height="150px" viewBox="0 0 194 150" enable-background="new 0 0 194 150" xml:space="preserve">
<path fill="#444444" stroke="#444444" stroke-width="0.2" d="M136.96,128.53c-0.785,0-1.424-0.639-1.424-1.425v-12.932
	c0-2.83,1.806-5.343,4.492-6.251l0.68-0.229v-7.068l-1.479,0.806c-2.297,1.251-5.544,2.376-9.649,3.342
	c-8.408,1.979-19.564,3.068-31.413,3.068c-11.848,0-23.004-1.09-31.415-3.068c-9.273-2.182-13.976-5.109-13.976-8.701V72.482
	L21.458,61.744C18.75,60.815,17,58.366,17,55.504s1.75-5.312,4.458-6.239l66.181-22.691c3.378-1.158,6.92-1.746,10.528-1.746
	c3.607,0,7.149,0.588,10.527,1.746l66.181,22.691c2.708,0.927,4.458,3.376,4.458,6.239s-1.75,5.313-4.458,6.24l-31.318,10.738
	v35.211l0.68,0.229c2.688,0.909,4.493,3.421,4.493,6.251v12.932c0,0.786-0.639,1.425-1.424,1.425H136.96z M142.132,110.427
	c-2.066,0-3.747,1.681-3.747,3.747v11.508h7.496v-11.508C145.881,112.107,144.199,110.427,142.132,110.427z M55.625,96.071
	c0,1.455,3.085,3.881,11.779,5.928c8.196,1.929,19.121,2.991,30.763,2.991c11.642,0,22.566-1.063,30.762-2.991
	c8.694-2.047,11.779-4.473,11.779-5.928v-5.787l-1.478,0.803c-2.302,1.252-5.549,2.376-9.65,3.342
	c-8.41,1.979-19.566,3.067-31.413,3.067c-11.843,0-23-1.089-31.415-3.067c-4.102-0.966-7.348-2.09-9.649-3.342l-1.478-0.803V96.071z
	 M55.625,85.727c0,1.456,3.085,3.883,11.779,5.929c8.197,1.928,19.122,2.99,30.763,2.99s22.565-1.063,30.762-2.99
	c8.137-1.914,11.779-4.357,11.779-5.929V73.459l-32.014,10.976c-3.376,1.159-6.918,1.746-10.527,1.746s-7.152-0.587-10.528-1.746
	L55.625,73.46V85.727z M98.167,27.676c-3.295,0-6.526,0.536-9.604,1.592L22.382,51.957c-1.867,0.642-2.532,2.253-2.532,3.547
	s0.665,2.905,2.531,3.546l66.181,22.69c3.083,1.057,6.314,1.593,9.604,1.593c3.289,0,6.521-0.536,9.604-1.593l32.916-11.025
	l-33.594-11.584c0,0-2.271,2.158-8.925,2.158c-6.601,0-11.771-2.898-11.771-6.598s5.17-6.597,11.771-6.597
	c6.6,0,11.802,2.897,11.769,6.597c-0.016,1.736-0.901,2.595-0.901,2.595l34.433,12.204l30.483-10.439
	c1.868-0.642,2.533-2.253,2.533-3.547s-0.665-2.905-2.532-3.547l-66.182-22.689C104.688,28.212,101.457,27.676,98.167,27.676z
	 M98.167,50.944c-5.527,0-8.921,2.183-8.921,3.747c0,1.565,3.394,3.748,8.921,3.748c5.526,0,8.92-2.183,8.92-3.748
	C107.087,53.127,103.693,50.944,98.167,50.944z"/>
<path fill="#358FBD" stroke="#358FBD" stroke-width="0.5" d="M144.236,107.923l-0.68-0.229V72.482l-0.089-2.992l-34.433-12.204
	c0,0,0.886-0.858,0.901-2.595c0.033-3.699-5.169-6.597-11.769-6.597c-6.601,0-11.771,2.897-11.771,6.597s5.17,6.598,11.771,6.598
	c6.654,0,8.925-2.158,8.925-2.158l33.594,11.584l0.021,2.744v12.268c0,1.002,0,4.558,0,4.558v5.787c0,1.164,0,4.554,0,4.554v7.068
	l-0.68,0.229c-2.687,0.908-4.492,3.421-4.492,6.251v12.932c0,0.786,0.639,1.425,1.424,1.425h10.346c0.785,0,1.424-0.639,1.424-1.425
	v-12.932C148.729,111.344,146.924,108.832,144.236,107.923z M98.167,58.439c-5.527,0-8.921-2.183-8.921-3.748
	c0-1.564,3.394-3.747,8.921-3.747c5.526,0,8.92,2.183,8.92,3.747C107.087,56.257,103.693,58.439,98.167,58.439z M145.881,125.682
	h-7.496v-11.508c0-2.066,1.681-3.747,3.747-3.747c2.067,0,3.749,1.681,3.749,3.747V125.682z"/>
<path fill="#358FBD" d="M144.236,107.923l-0.68-0.229v-0.638c-0.901,0.018-1.799,0.073-2.69,0.193
	c-0.057,0.008-0.104-0.005-0.158-0.002v0.446l-0.68,0.229c-2.687,0.908-4.492,3.421-4.492,6.251v12.932
	c0,0.786,0.639,1.425,1.424,1.425h10.346c0.785,0,1.424-0.639,1.424-1.425v-12.932C148.729,111.344,146.924,108.832,144.236,107.923
	z M145.881,125.682h-7.496v-11.508c0-2.066,1.681-3.747,3.747-3.747c2.067,0,3.749,1.681,3.749,3.747V125.682z"/>
</svg>
