<?xml version="1.0" encoding="utf-8"?>
<!-- Generator: Adobe Illustrator 15.1.0, SVG Export Plug-In . SVG Version: 6.00 Build 0)  -->
<!DOCTYPE svg PUBLIC "-//W3C//DTD SVG 1.1//EN" "http://www.w3.org/Graphics/SVG/1.1/DTD/svg11.dtd">
<svg version="1.1" id="Capa_1" xmlns="http://www.w3.org/2000/svg" xmlns:xlink="http://www.w3.org/1999/xlink" x="0px" y="0px"
	 width="71.386px" height="70.421px" viewBox="0 627.441 71.386 70.421" enable-background="new 0 627.441 71.386 70.421"
	 xml:space="preserve">
<g>
	<path d="M69.695,688.017l-16.412-16.413c2.789-4.44,4.407-9.687,4.407-15.317c0-15.932-12.915-28.845-28.846-28.845
		S0,640.354,0,656.286s12.913,28.844,28.845,28.844c6.128,0,11.804-1.916,16.475-5.172l16.217,16.218
		c1.126,1.126,2.604,1.687,4.079,1.687c1.477,0,2.953-0.561,4.081-1.687C71.949,693.921,71.949,690.27,69.695,688.017z
		 M28.845,675.784c-10.768,0-19.498-8.729-19.498-19.498c0-10.768,8.73-19.498,19.498-19.498s19.498,8.73,19.498,19.498
		C48.342,667.056,39.613,675.784,28.845,675.784z"/>
</g>
</svg>
